<?xml version="1.0" encoding="UTF-8"?><svg id="_层_1" xmlns="http://www.w3.org/2000/svg" viewBox="0 0 845.17 715.72"><defs><style>.cls-1{fill:#ffdc00;}.cls-1,.cls-2,.cls-3{stroke:#231815;stroke-miterlimit:10;stroke-width:20.54px;}.cls-2{fill:#e0e0e0;}.cls-3{fill:#d64816;}</style></defs><path id="_利刀" class="cls-2" d="M260.33,674.71c-.58,.02-1.17,.05-1.75,.07l-.43-85.61c-.11-22.38-.2-45.01,4.86-66.81,13.56,.14,27.18,1.21,40.71,1.21,12.02,0,24.05,0,36.07,0h220.36c36.99,0,73.69-1.02,110.35,3.32,59.19,7.01,115.64,35.21,156.8,78.31-18.92,7.65-37.86,15.27-56.88,22.66-64.9,25.2-130.35,36.74-199.93,40.4-93.38,4.91-186.17,1.91-279.75,5.26-10.14,.36-20.27,.76-30.4,1.18Z"/><path id="_齿刀" class="cls-2" d="M361.08,62.3c-62.81-1.83-125.65-2.6-188.12,4.88-54.63,6.55-101.76,23.24-146.18,56.55-5.76,4.32-18.1,12.73-16.34,21.47,1.76,8.7,17.69,12.19,24.95,14.88,27.13,10.07,53.62,21.89,79.24,35.36,11.56,6.08,19.15,14.05,28.09,22.46,12.4-10.03,23.72-22.25,35.28-33.31l34.33,34.33,35.43-35.43,41.06,41.06,40.02-40.02,42.24,42.24,34.39-34.39,37.57,37.57c41.28-1.03,82.93-3.51,124.12-2.99,.34-48.43,.26-96.88,.03-145.32-.06-12.26,2.06-15.24-8.74-18.32-9.73-2.77-26.1,1.27-36.38,1.52-23.34,.58-46.69,.45-70.03,.02-30.28-.56-60.61-1.69-90.96-2.57Z"/><g id="_柄"><rect id="_体" class="cls-3" x="-8.09" y="221.99" width="867.23" height="271.75" rx="133.02" ry="133.02" transform="translate(979.46 310.02) rotate(135)"/><circle id="_饰" class="cls-1" cx="633.74" cy="149.64" r="29.12"/><circle id="_饰-2" class="cls-1" cx="214.88" cy="568.5" r="30.07"/></g></svg>